HIERARCHY
ROOT joint_Root
{
	OFFSET 0.0 0.0 0.0
	CHANNELS 6 Xposition Yposition Zposition Zrotation Xrotation Yrotation 
	JOINT Hips
	{
		OFFSET -17.1583 93.1646 452.98
		CHANNELS 6 Xposition Yposition Zposition Zrotation Xrotation Yrotation 
		JOINT Spine
		{
			OFFSET 15.7357 0.0 0.0
			CHANNELS 6 Xposition Yposition Zposition Zrotation Xrotation Yrotation 
			JOINT Chest
			{
				OFFSET 8.98455 -0.406207 0.0
				CHANNELS 6 Xposition Yposition Zposition Zrotation Xrotation Yrotation 
				JOINT Neck
				{
					OFFSET 16.3773 0.0 0.0
					CHANNELS 6 Xposition Yposition Zposition Zrotation Xrotation Yrotation 
					JOINT Head
					{
						OFFSET 6.45672 0.0 0.0
						CHANNELS 6 Xposition Yposition Zposition Zrotation Xrotation Yrotation 
						End Site
						{
							OFFSET 0.0 0.0 0.0
						}
					}
				}
				JOINT Shoulder_L
				{
					OFFSET 12.9942 -0.242716 4.98039
					CHANNELS 6 Xposition Yposition Zposition Zrotation Xrotation Yrotation 
					JOINT UpperArm_L
					{
						OFFSET 5.34809 0.0 0.0
						CHANNELS 6 Xposition Yposition Zposition Zrotation Xrotation Yrotation 
						JOINT LowerArm_L
						{
							OFFSET 24.3286 1.87007e-05 0.0
							CHANNELS 6 Xposition Yposition Zposition Zrotation Xrotation Yrotation 
							JOINT Hand_L
							{
								OFFSET 22.2916 0.0 0.0
								CHANNELS 6 Xposition Yposition Zposition Zrotation Xrotation Yrotation 
								End Site
								{
									OFFSET 0.0 0.0 0.0
								}
							}
						}
					}
				}
				JOINT Shoulder_R
				{
					OFFSET 12.9945 -0.242716 -4.98039
					CHANNELS 6 Xposition Yposition Zposition Zrotation Xrotation Yrotation 
					JOINT UpperArm_R
					{
						OFFSET -5.34813 0.0 0.0
						CHANNELS 6 Xposition Yposition Zposition Zrotation Xrotation Yrotation 
						JOINT LowerArm_R
						{
							OFFSET -24.3289 0.000322201 0.0
							CHANNELS 6 Xposition Yposition Zposition Zrotation Xrotation Yrotation 
							JOINT Hand_R
							{
								OFFSET -22.2915 -0.000108084 0.0
								CHANNELS 6 Xposition Yposition Zposition Zrotation Xrotation Yrotation 
								End Site
								{
									OFFSET 0.0 0.0 0.0
								}
							}
						}
					}
				}
			}
		}
		JOINT UpperLeg_L
		{
			OFFSET -2.19248 -6.46944 0.0
			CHANNELS 6 Xposition Yposition Zposition Zrotation Xrotation Yrotation 
			JOINT LowerLeg_L
			{
				OFFSET 39.0811 0.0 -1.23785e-05
				CHANNELS 6 Xposition Yposition Zposition Zrotation Xrotation Yrotation 
				JOINT Foot_L
				{
					OFFSET 40.9854 0.0 -1.26872e-05
					CHANNELS 6 Xposition Yposition Zposition Zrotation Xrotation Yrotation 
					JOINT Toes_L
					{
						OFFSET 11.7543 0.0 0.0
						CHANNELS 6 Xposition Yposition Zposition Zrotation Xrotation Yrotation 
						End Site
						{
							OFFSET 0.0 0.0 0.0
						}
					}
				}
			}
		}
		JOINT UpperLeg_R
		{
			OFFSET -2.19251 6.46944 0.0
			CHANNELS 6 Xposition Yposition Zposition Zrotation Xrotation Yrotation 
			JOINT LowerLeg_R
			{
				OFFSET -39.0811 -0.00228153 -0.0401928
				CHANNELS 6 Xposition Yposition Zposition Zrotation Xrotation Yrotation 
				JOINT Foot_R
				{
					OFFSET -40.9854 0.0 0.0
					CHANNELS 6 Xposition Yposition Zposition Zrotation Xrotation Yrotation 
					JOINT Toes_R
					{
						OFFSET -11.7543 0.0 0.0
						CHANNELS 6 Xposition Yposition Zposition Zrotation Xrotation Yrotation 
						End Site
						{
							OFFSET 0.0 0.0 0.0
						}
					}
				}
			}
		}
	}
}
MOTION
Frames:	7
Frame Time:	0.0333333
0.000000 0.000000 0.000000 0.000000 0.000000 -0.000000 142.984000 90.437700 213.626000 99.086400 -60.288900 7.108970 15.735700 0.000005 -0.000001 67.353900 87.869200 -67.553100 8.984550 -0.406207 -0.000000 -3.836590 -1.619680 -0.452873 16.377300 -0.000001 -0.000001 -1.868370 -4.594930 -0.718823 6.456720 -0.000001 -0.000000 3.413610 -7.001470 0.916472 12.994200 -0.242716 4.980390 -92.263100 6.973510 -71.969700 5.348090 -0.000007 -0.000001 -72.990500 -0.074849 4.311550 24.328600 0.000019 0.000005 25.700500 27.684700 -46.007100 22.291600 -0.000001 0.000005 46.627600 4.762420 12.019600 12.994500 -0.242716 -4.980390 88.932400 3.104160 -71.009800 -5.348130 -0.000001 -0.000004 -74.520100 3.723620 -1.721200 -24.328900 0.000322 -0.000009 -3.921370 -7.840340 -26.675200 -22.291500 -0.000108 -0.000004 40.357100 5.507670 -6.845960 -2.192480 -6.469440 -0.000000 -175.180000 -2.719010 -22.179600 39.081100 -0.000007 -0.000012 0.079058 -0.034765 66.259600 40.985400 -0.000006 -0.000013 -6.301660 0.666589 -47.063500 11.754300 -0.000000 0.000003 0.002023 0.047595 -14.646100 -2.192510 6.469440 -0.000001 -169.948000 8.694160 174.687000 -39.081100 -0.002282 -0.040193 0.015121 -0.031373 20.614100 -40.985400 0.000008 0.000006 8.425120 -0.854622 -72.764800 -11.754300 -0.000006 -0.000006 -0.005734 0.236063 -6.990130
0.000000 0.000000 0.000000 0.000000 0.000000 -0.000000 140.572000 90.959600 215.386000 103.766000 -64.717200 10.676800 15.735700 0.000005 -0.000001 88.598800 88.236700 -89.345000 8.984550 -0.406207 -0.000000 -4.240160 -0.008033 -1.493470 16.377300 -0.000001 -0.000001 -1.937340 -3.789090 -0.803543 6.456720 -0.000001 -0.000000 3.353300 -6.476530 1.035580 12.994200 -0.242716 4.980390 -92.289400 6.831490 -71.422500 5.348090 -0.000007 -0.000001 -70.894200 -3.470810 6.870540 24.328600 0.000019 0.000005 19.961900 27.064200 -38.597500 22.291600 -0.000001 0.000005 45.504100 4.763810 11.993500 12.994500 -0.242716 -4.980390 88.920400 3.262050 -71.676900 -5.348130 -0.000001 -0.000004 -74.829300 4.820120 -3.893630 -24.328900 0.000322 -0.000009 -4.169280 -6.790730 -31.647700 -22.291500 -0.000108 -0.000004 40.955100 5.504160 -6.701390 -2.192480 -6.469440 -0.000000 -176.934000 -1.412610 -25.665400 39.081100 -0.000007 -0.000012 0.009250 -0.004837 62.372900 40.985400 -0.000006 -0.000013 -2.717640 -8.570910 -52.661600 11.754300 -0.000000 0.000003 0.002439 0.072115 -13.652000 -2.192510 6.469440 -0.000001 -172.337000 5.742880 178.280000 -39.081100 -0.002282 -0.040193 0.000410 0.009453 17.148000 -40.985400 0.000008 0.000006 7.508880 1.240870 -72.269800 -11.754300 -0.000006 -0.000006 -0.005207 0.231126 -7.191430
0.000000 0.000000 0.000000 0.000000 0.000000 -0.000000 138.181000 91.358900 217.140000 109.772000 -69.519200 15.481900 15.735700 0.000005 -0.000001 116.439000 88.269400 -117.583000 8.984550 -0.406207 -0.000000 -4.650270 1.663540 -2.221680 16.377300 -0.000001 -0.000001 -2.173850 -2.810790 -0.925953 6.456720 -0.000001 -0.000000 3.194980 -5.590120 1.014150 12.994200 -0.242716 4.980390 -92.338500 6.754590 -70.853000 5.348090 -0.000007 -0.000001 -68.420800 -7.574930 9.734460 24.328600 0.000019 0.000005 15.191600 25.653900 -32.094100 22.291600 -0.000001 0.000005 44.965500 4.746340 12.315900 12.994500 -0.242716 -4.980390 88.967800 3.240690 -72.321900 -5.348130 -0.000001 -0.000004 -75.108900 6.247500 -6.472370 -24.328900 0.000322 -0.000009 -4.168880 -5.876080 -35.443500 -22.291500 -0.000108 -0.000004 41.581200 5.500230 -6.543310 -2.192480 -6.469440 -0.000000 -177.829000 -0.568049 -28.043200 39.081100 -0.000007 -0.000012 0.004396 -0.003002 55.633400 40.985400 -0.000006 -0.000013 -1.910490 -12.896400 -55.779300 11.754300 -0.000000 0.000003 0.002431 0.071217 -13.688400 -2.192510 6.469440 -0.000001 -174.698000 3.538520 -178.941000 -39.081100 -0.002282 -0.040193 -0.002902 0.024265 14.407200 -40.985400 0.000008 0.000006 6.893040 4.627550 -71.706200 -11.754300 -0.000006 -0.000006 -0.003362 0.212303 -7.958160
0.000000 0.000000 0.000000 0.000000 0.000000 -0.000000 135.740000 91.612900 218.890000 117.460000 -73.943100 22.036300 15.735700 0.000005 -0.000001 135.372000 88.067000 -136.753000 8.984550 -0.406207 -0.000000 -5.017090 2.902480 -2.638090 16.377300 -0.000001 -0.000001 -2.596340 -1.590310 -1.002590 6.456720 -0.000001 -0.000000 3.057910 -4.369430 0.886097 12.994200 -0.242716 4.980390 -92.362300 6.626320 -70.328000 5.348090 -0.000007 -0.000001 -65.695200 -11.790100 13.090600 24.328600 0.000019 0.000005 11.931800 24.518000 -26.984200 22.291600 -0.000001 0.000005 44.958400 4.729760 12.619100 12.994500 -0.242716 -4.980390 89.011400 3.232040 -72.981700 -5.348130 -0.000001 -0.000004 -75.154800 8.024280 -9.329670 -24.328900 0.000322 -0.000009 -3.971210 -5.064000 -38.177900 -22.291500 -0.000108 -0.000004 42.231800 5.498350 -6.468250 -2.192480 -6.469440 -0.000000 -178.092000 -0.166467 -29.382700 39.081100 -0.000007 -0.000012 0.029589 -0.027760 46.823400 40.985400 -0.000006 -0.000013 -3.014590 -11.979700 -57.961700 11.754300 -0.000000 0.000003 0.002471 0.077123 -13.448900 -2.192510 6.469440 -0.000001 -176.967000 2.481550 -176.672000 -39.081100 -0.002282 -0.040193 -0.002665 0.027859 12.154000 -40.985400 0.000008 0.000006 6.321700 8.808910 -71.312700 -11.754300 -0.000006 -0.000006 -0.002646 0.204196 -8.288070
0.000000 0.000000 0.000000 0.000000 0.000000 -0.000000 133.126000 91.688600 220.566000 125.004000 -77.199100 28.858000 15.735700 0.000005 -0.000001 142.991000 87.890500 -144.357000 8.984550 -0.406207 -0.000000 -5.188180 3.519680 -2.575900 16.377300 -0.000001 -0.000001 -2.977750 -0.549797 -1.261230 6.456720 -0.000001 -0.000000 2.801990 -3.224420 0.696548 12.994200 -0.242716 4.980390 -92.374700 6.542100 -69.999500 5.348090 -0.000007 -0.000001 -63.005300 -15.006500 16.445700 24.328600 0.000019 0.000005 8.978640 22.174900 -22.713900 22.291600 -0.000001 0.000005 44.974400 4.688220 13.367900 12.994500 -0.242716 -4.980390 89.078300 3.113790 -73.502900 -5.348130 -0.000001 -0.000004 -75.221400 9.275190 -11.711500 -24.328900 0.000322 -0.000009 -3.953130 -4.644370 -40.470700 -22.291500 -0.000108 -0.000004 42.704700 5.495320 -6.345790 -2.192480 -6.469440 -0.000000 -177.598000 0.702220 -29.591200 39.081100 -0.000007 -0.000012 0.040800 -0.055117 36.509300 40.985400 -0.000006 -0.000013 -4.393760 -6.698640 -58.786300 11.754300 -0.000000 0.000003 0.002457 0.074632 -13.549900 -2.192510 6.469440 -0.000001 -178.728000 2.199140 -174.731000 -39.081100 -0.002282 -0.040193 -0.000459 0.019978 10.760100 -40.985400 0.000008 0.000006 5.620300 12.373800 -70.812600 -11.754300 -0.000006 -0.000006 -0.000418 0.174427 -9.498270
0.000000 0.000000 0.000000 0.000000 0.000000 -0.000000 130.226000 91.473900 222.226000 130.379000 -79.235600 33.798000 15.735700 0.000005 -0.000001 146.072000 87.773000 -147.276000 8.984550 -0.406207 -0.000000 -5.244990 3.828010 -2.235540 16.377300 -0.000001 -0.000001 -3.220250 0.081855 -1.613610 6.456720 -0.000001 -0.000000 2.425320 -2.477790 0.647860 12.994200 -0.242716 4.980390 -92.306700 6.311230 -69.875800 5.348090 -0.000007 -0.000001 -60.823300 -17.561300 19.061200 24.328600 0.000019 0.000005 7.332680 21.480900 -19.361700 22.291600 -0.000001 0.000005 45.778600 4.647740 14.084900 12.994500 -0.242716 -4.980390 89.159800 2.893300 -73.800400 -5.348130 -0.000001 -0.000004 -75.405800 9.571280 -13.040700 -24.328900 0.000322 -0.000009 -4.062600 -4.433060 -42.571900 -22.291500 -0.000108 -0.000004 42.848800 5.492700 -6.242250 -2.192480 -6.469440 -0.000000 -176.925000 1.961830 -29.130600 39.081100 -0.000007 -0.000012 0.028283 -0.059172 25.546900 40.985400 -0.000006 -0.000013 -6.407110 -2.189870 -59.657600 11.754300 -0.000000 0.000003 0.002487 0.083425 -13.193500 -2.192510 6.469440 -0.000001 -179.983000 2.446860 -173.308000 -39.081100 -0.002282 -0.040193 0.000100 0.016741 10.942900 -40.985400 0.000008 0.000006 5.450810 14.998700 -70.679100 -11.754300 -0.000006 -0.000006 0.001215 0.143819 -10.740900
0.000000 0.000000 0.000000 0.000000 0.000000 -0.000000 126.958000 91.127600 223.895000 133.453000 -80.731700 36.559800 15.735700 0.000005 -0.000001 150.202000 87.644300 -151.177000 8.984550 -0.406207 -0.000000 -5.396150 4.195340 -1.754790 16.377300 -0.000001 -0.000001 -3.344420 0.390900 -1.802260 6.456720 -0.000001 -0.000000 2.192060 -2.185450 0.537236 12.994200 -0.242716 4.980390 -92.213700 6.059070 -69.886800 5.348090 -0.000007 -0.000001 -58.894000 -19.642900 21.079200 24.328600 0.000019 0.000005 6.341700 21.025500 -17.210600 22.291600 -0.000001 0.000005 46.189100 4.621210 14.548100 12.994500 -0.242716 -4.980390 89.227400 2.667880 -73.842700 -5.348130 -0.000001 -0.000004 -75.403700 9.590040 -13.375100 -24.328900 0.000322 -0.000009 -3.949070 -4.106140 -43.944400 -22.291500 -0.000108 -0.000004 42.992600 5.492300 -6.226390 -2.192480 -6.469440 -0.000000 -176.971000 2.243630 -27.807500 39.081100 -0.000007 -0.000012 0.013148 -0.051505 14.320900 40.985400 -0.000006 -0.000013 -7.446100 -0.400964 -61.514400 11.754300 -0.000000 0.000003 0.002472 0.090421 -12.909800 -2.192510 6.469440 -0.000001 179.131000 2.886150 -172.048000 -39.081100 -0.002282 -0.040193 0.000283 0.014573 11.829000 -40.985400 0.000008 0.000006 4.954380 16.927800 -69.878100 -11.754300 -0.000006 -0.000006 0.002484 0.087349 -13.030800
